<svg width="760" height="212" viewBox="0 0 760 212" fill="none" xmlns="http://www.w3.org/2000/svg" role="img" aria-label="goerlife logo">
  <rect width="760" height="212" fill="#F2F2F2"/>
  <circle cx="106" cy="106" r="106" fill="#F07800"/>
  <path d="M130 42H151V148C151 173 135 188 106 188C84 188 66 179 53 163L70 147C79 158 91 165 104 165C121 165 130 156 130 142V42Z" fill="#F4F4F4"/>
  <circle cx="103" cy="90" r="24" fill="#F07800"/>
  <path d="M262 152C239 152 221 136 221 106C221 76 239 60 262 60C277 60 288 66 295 75V62H331V150H295V137C288 146 277 152 262 152ZM276 123C287 123 296 114 296 106C296 98 287 89 276 89C265 89 257 98 257 106C257 114 265 123 276 123Z" fill="#423F45"/>
  <path d="M389 152C365 152 347 136 347 106C347 76 366 60 390 60C414 60 431 76 431 106C431 136 413 152 389 152ZM389 123C401 123 409 114 409 106C409 98 401 89 389 89C377 89 369 98 369 106C369 114 377 123 389 123Z" fill="#423F45"/>
  <path d="M480 152C456 152 438 136 438 106C438 76 457 60 481 60C504 60 519 74 519 100C519 104 519 108 518 111H460C462 120 469 125 480 125C488 125 495 122 501 116L516 134C506 145 494 152 480 152ZM459 94H497C494 86 489 82 481 82C473 82 465 86 459 94Z" fill="#423F45"/>
  <path d="M533 150V62H569V74C576 65 587 60 599 60C621 60 635 75 635 100V150H599V106C599 95 593 89 584 89C575 89 569 95 569 106V150H533Z" fill="#423F45"/>
  <path d="M652 150V35H688V150H652Z" fill="#423F45"/>
  <path d="M703 51C692 51 684 43 684 33C684 23 692 15 703 15C714 15 722 23 722 33C722 43 714 51 703 51ZM685 150V62H721V150H685Z" fill="#423F45"/>
  <path d="M734 150V35H760V150H734Z" fill="#423F45"/>
</svg>
